# xmcd
#
# Track frame offsets: 
#        180
#        14879
#        34486
#        47575
#        59980
#        73790
#        87890
#        102899
#        116197
#        131137
#        147131
#        160729
#        171768
#        185556
#        199399
#        212909
#        228025
#        241821
#        256959
#        271153
#
# Disc length: 3777 seconds
#
# Revision: 0
# Processed by: cddbd v1.5.2PL0 Copyright (c) Steve Scherf et al.
# Submitted via: ExactAudioCopy v0.99pb4
#
DISCID=310ebf14
DTITLE=Various Artist - Working Man Blues CD3
DYEAR=2006
DGENRE=Blues
TTITLE0=Big Joe Williams - Highway 49
TTITLE1=Leadbelly - John Hardy
TTITLE2=Sonny Terry - Blowing The Blues
TTITLE3=Brownie Mchgee - Coal Miner Blues
TTITLE4=John Lee Hooker - Tuesday Evening Blues
TTITLE5=Big Joe Turner - I'm Still In The Dark
TTITLE6=Bessie Smith - Soft Pedal Blues
TTITLE7=John Lee Williamson - Stop Breaking Down
TTITLE8=Big Joe Williams - Wild Cow Blues
TTITLE9=John Lee Hooker - Good Business
TTITLE10=Bukka White - Shake 'em On Down
TTITLE11=Ray Charles - A Sentimental Blues
TTITLE12=Missisippi John Hurt - Avalon Blues
TTITLE13=Lonnie Johnson - Life Saver Blues
TTITLE14=John Lee Hooker - Drifting From Door To Door
TTITLE15=Eddie Lang And Joe Venuti - Bull Frog Moan
TTITLE16=Leadbelly - Fort Worth And Dallas Blues
TTITLE17=Ike Rodgers - Prison Blues
TTITLE18=Muddy Waters - I Feel Like Going Home
TTITLE19=T-bone Walker - Too Much Trouble Blues
EXTD=
EXTT0=
EXTT1=
EXTT2=
EXTT3=
EXTT4=
EXTT5=
EXTT6=
EXTT7=
EXTT8=
EXTT9=
EXTT10=
EXTT11=
EXTT12=
EXTT13=
EXTT14=
EXTT15=
EXTT16=
EXTT17=
EXTT18=
EXTT19=
PLAYORDER=
